<?xml version="1.0" encoding="UTF-8" standalone="no"?>
<!DOCTYPE svg PUBLIC "-//W3C//DTD SVG 1.1//EN" "http://www.w3.org/Graphics/SVG/1.1/DTD/svg11.dtd">
<svg width="100%" height="100%" viewBox="0 0 2000 2000" version="1.1" xmlns="http://www.w3.org/2000/svg" xmlns:xlink="http://www.w3.org/1999/xlink" xml:space="preserve" xmlns:serif="http://www.serif.com/" style="fill-rule:evenodd;clip-rule:evenodd;stroke-linejoin:round;stroke-miterlimit:2;">
    <g transform="matrix(2.10964,0,0,2.24646,-472.985,-770.204)">
        <rect x="224.201" y="342.852" width="948.029" height="890.29" style="fill:rgb(5,5,5);"/>
    </g>
    <g transform="matrix(3.99945,0,0,3.99945,-2999.45,-2999.45)">
        <g transform="matrix(0.25,0,0,0.25,750,739.571)">
            <path d="M785.587,1460.26C787.738,1461.5 788.658,1464.13 787.747,1466.43C786.836,1468.74 784.37,1470.03 781.954,1469.46C765.62,1465.57 750.106,1458.03 735.534,1445.17C652.443,1371.85 600,1264.58 600,1145.17C600,1072.33 619.509,1004.02 653.583,945.167C722.788,825.644 852.07,945.167 1000,945.167C1147.93,945.167 1277.21,825.644 1346.42,945.167C1380.49,1004.02 1400,1072.33 1400,1145.17C1400,1264.58 1347.56,1371.85 1264.47,1445.17C1249.89,1458.03 1234.38,1465.57 1218.04,1469.45C1215.63,1470.01 1213.18,1468.73 1212.27,1466.43C1211.37,1464.13 1212.28,1461.51 1214.42,1460.28C1220.23,1456.9 1225.89,1452.75 1231.41,1447.7C1304.11,1381.09 1350,1283.63 1350,1175.14C1350,1108.96 1332.93,1046.9 1303.12,993.43C1242.56,884.839 1129.44,993.43 1000,993.43C870.561,993.43 757.439,884.839 696.885,993.43C667.071,1046.9 650,1108.96 650,1175.14C650,1283.63 695.888,1381.09 768.593,1447.7C774.106,1452.75 779.773,1456.9 785.587,1460.26Z" style="fill:rgb(193,162,88);"/>
        </g>
        <g transform="matrix(0.25,0,0,0.25,750,739.571)">
            <path d="M994.706,615.353C997.944,613.327 1002.06,613.327 1005.29,615.353C1047.18,641.968 1075,688.784 1075,742.046C1075,795.308 1047.18,842.124 1005.29,868.739C1002.06,870.765 997.944,870.765 994.706,868.739C952.82,842.124 925,795.308 925,742.046C925,688.784 952.82,641.968 994.706,615.353Z" style="fill:rgb(193,162,88);"/>
        </g>
    </g>
</svg>
