<?xml version="1.0" encoding="UTF-8" standalone="no"?>
<!DOCTYPE svg PUBLIC "-//W3C//DTD SVG 1.1//EN" "http://www.w3.org/Graphics/SVG/1.1/DTD/svg11.dtd">
<svg width="100%" height="100%" viewBox="0 0 1000 1000" version="1.1" xmlns="http://www.w3.org/2000/svg" xmlns:xlink="http://www.w3.org/1999/xlink" xml:space="preserve" xmlns:serif="http://www.serif.com/" style="fill-rule:evenodd;clip-rule:evenodd;stroke-linejoin:round;stroke-miterlimit:2;">
    <g transform="matrix(4.12734,0,0,4.12734,-1713.57,-665.262)">
        <g transform="matrix(1,0,0,1,1.38313,111.025)">
            <path d="M580.825,213.217C584.877,213.217 588.337,214.635 591.205,217.472C594.073,220.308 595.507,223.753 595.507,227.805C595.507,231.857 594.073,235.317 591.205,238.185C588.337,241.053 584.877,242.487 580.825,242.487C576.773,242.487 573.313,241.053 570.445,238.185C567.577,235.317 566.143,231.857 566.143,227.805C566.143,223.753 567.577,220.308 570.445,217.472C573.313,214.635 576.773,213.217 580.825,213.217Z" style="fill:rgb(230,0,17);fill-rule:nonzero;"/>
        </g>
        <g transform="matrix(1,0,0,1,308.305,198.493)">
            <path d="M215.663,153.651C206.775,153.651 199.404,150.911 193.552,145.429C187.7,139.948 183.7,132.318 183.552,122.54L183.552,72.651L167.441,72.651L167.441,49.985L183.552,49.985L183.552,12.651L206.997,12.651L206.997,49.985L233.663,49.985L233.663,72.651L206.997,72.651L206.997,115.874C206.997,123.133 208.404,126.059 211.219,128.651C214.034,131.244 217.219,132.54 220.775,132.54C222.404,132.54 223.997,132.355 225.552,131.985C227.108,131.614 228.552,131.133 229.886,130.54L234.33,150.762C228.997,152.688 222.775,153.651 215.663,153.651Z" style="fill:rgb(40,40,40);fill-rule:nonzero;"/>
        </g>
    </g>
</svg>
